<svg width="664" height="664" viewBox="0 0 664 664" fill="none" xmlns="http://www.w3.org/2000/svg">
<circle cx="332" cy="332" r="331.5" stroke="#82EFAA"/>
<circle cx="331.5" cy="332.5" r="273" stroke="#82EFAA"/>
<path d="M549.5 333C549.5 453.121 451.899 550.5 331.5 550.5C211.101 550.5 113.5 453.121 113.5 333C113.5 212.879 211.101 115.5 331.5 115.5C451.899 115.5 549.5 212.879 549.5 333Z" stroke="#82EFAA"/>
<circle cx="496" cy="111" r="25.5" fill="#82EFAA" stroke="#82EFAA"/>
<path d="M496 100.167V104.5" stroke="black" stroke-width="1.625" stroke-linecap="round" stroke-linejoin="round"/>
<path d="M496 117.5V121.833" stroke="black" stroke-width="1.625" stroke-linecap="round" stroke-linejoin="round"/>
<path d="M506.833 111H502.5" stroke="black" stroke-width="1.625" stroke-linecap="round" stroke-linejoin="round"/>
<path d="M489.5 111H485.167" stroke="black" stroke-width="1.625" stroke-linecap="round" stroke-linejoin="round"/>
<path d="M488.34 103.34L491.404 106.404" stroke="black" stroke-width="1.625" stroke-linecap="round" stroke-linejoin="round"/>
<path d="M500.596 115.596L503.66 118.66" stroke="black" stroke-width="1.625" stroke-linecap="round" stroke-linejoin="round"/>
<path d="M503.66 103.34L500.596 106.404" stroke="black" stroke-width="1.625" stroke-linecap="round" stroke-linejoin="round"/>
<path d="M491.404 115.596L488.34 118.66" stroke="black" stroke-width="1.625" stroke-linecap="round" stroke-linejoin="round"/>
<circle cx="587" cy="424" r="25.5" fill="#82EFAA" stroke="#82EFAA"/>
<path d="M582.167 432.167V422.833C582.167 421.545 583.211 420.5 584.5 420.5H597.333C598.622 420.5 599.667 421.545 599.667 422.833V432.167C599.667 433.455 598.622 434.5 597.333 434.5H584.5C583.211 434.5 582.167 433.455 582.167 432.167Z" stroke="black" stroke-width="1.75"/>
<path d="M581.583 428.667H578.667C577.378 428.667 576.333 427.622 576.333 426.333V417C576.333 415.711 577.378 414.667 578.667 414.667H591.5C592.789 414.667 593.833 415.711 593.833 417V420.5" stroke="black" stroke-width="1.75"/>
<path d="M585.667 424H586.833" stroke="black" stroke-width="1.75" stroke-linecap="round" stroke-linejoin="round"/>
<path d="M579.833 418.167H581" stroke="black" stroke-width="1.75" stroke-linecap="round" stroke-linejoin="round"/>
<circle cx="169" cy="474" r="25.5" fill="#82EFAA" stroke="#82EFAA"/>
<path d="M173.5 474V479.133C173.5 479.52 173.187 479.833 172.8 479.833H160.2C159.813 479.833 159.5 479.52 159.5 479.133V468.867C159.5 468.48 159.813 468.167 160.2 468.167H172.8C173.187 468.167 173.5 468.48 173.5 468.867V474ZM173.5 474L179.352 469.123C179.808 468.743 180.5 469.068 180.5 469.661V478.339C180.5 478.932 179.808 479.256 179.352 478.877L173.5 474Z" stroke="black" stroke-width="1.75" stroke-linecap="round" stroke-linejoin="round"/>
<circle cx="496" cy="615" r="25.5" fill="#82EFAA" stroke="#82EFAA"/>
<path d="M492.5 611.5L497.75 615L503 611.5" stroke="black" stroke-width="1.75" stroke-linecap="round" stroke-linejoin="round"/>
<path d="M485.5 616.75H487.833" stroke="black" stroke-width="1.75" stroke-linecap="round" stroke-linejoin="round"/>
<path d="M483.167 613.25H487.833" stroke="black" stroke-width="1.75" stroke-linecap="round" stroke-linejoin="round"/>
<path d="M487.833 609.75V609.167C487.833 607.878 488.878 606.833 490.167 606.833H505.333C506.622 606.833 507.667 607.878 507.667 609.167V620.833C507.667 622.122 506.622 623.167 505.333 623.167H490.167C488.878 623.167 487.833 622.122 487.833 620.833V620.25" stroke="black" stroke-width="1.75" stroke-linecap="round"/>
<circle cx="119" cy="73" r="25.5" fill="#82EFAA" stroke="#82EFAA"/>
<path d="M123.5 63.6667V61.3334M123.5 63.6667V66M123.5 63.6667H118.25M109.5 70.6667V81.1667C109.5 82.4554 110.545 83.5 111.833 83.5H128.167C129.455 83.5 130.5 82.4554 130.5 81.1667V70.6667H109.5Z" stroke="black" stroke-width="1.75" stroke-linecap="round" stroke-linejoin="round"/>
<path d="M109.5 70.6666V66C109.5 64.7113 110.545 63.6666 111.833 63.6666H114.167" stroke="black" stroke-width="1.75" stroke-linecap="round" stroke-linejoin="round"/>
<path d="M114.167 61.3334V66" stroke="black" stroke-width="1.75" stroke-linecap="round" stroke-linejoin="round"/>
<path d="M130.5 70.6666V66C130.5 64.7113 129.455 63.6666 128.167 63.6666H127.583" stroke="black" stroke-width="1.75" stroke-linecap="round" stroke-linejoin="round"/>
<circle cx="61" cy="307" r="25.5" fill="#82EFAA" stroke="#82EFAA"/>
<path d="M54 317.917C55.1667 306.833 60.4167 303.333 70.3333 301" stroke="black" stroke-width="1.75" stroke-linecap="round" stroke-linejoin="round"/>
<path d="M65.5601 298.444L70.7937 300.885L68.3532 306.119" stroke="black" stroke-width="1.75" stroke-linecap="round" stroke-linejoin="round"/>
<path d="M52.8333 302.167C54.122 302.167 55.1667 301.122 55.1667 299.833C55.1667 298.545 54.122 297.5 52.8333 297.5C51.5447 297.5 50.5 298.545 50.5 299.833C50.5 301.122 51.5447 302.167 52.8333 302.167Z" stroke="black" stroke-width="1.75" stroke-linecap="round" stroke-linejoin="round"/>
<path d="M65.6666 317.616L68.1415 315.141M68.1415 315.141L70.6164 312.667M68.1415 315.141L65.6666 312.667M68.1415 315.141L70.6164 317.616" stroke="black" stroke-width="1.75" stroke-linecap="round" stroke-linejoin="round"/>
</svg>
